<svg width="26" height="26" viewBox="0 0 26 26" fill="none" xmlns="http://www.w3.org/2000/svg">
<g clip-path="url(#clip0_1012_102)">
<path d="M20.865 15.1017L17.2539 13L20.7711 10.9345C21.108 10.7494 21.3915 10.4808 21.5945 10.1545C21.8485 9.74169 21.9569 9.25564 21.9021 8.77404C21.8474 8.29243 21.6327 7.84309 21.2925 7.49786C20.9523 7.15264 20.5061 6.93147 20.0253 6.86972C19.5446 6.80797 19.057 6.90921 18.6406 7.15725L15.1667 9.21558V5.05558C15.1667 4.48095 14.9384 3.92985 14.5321 3.52352C14.1257 3.11719 13.5746 2.88892 13 2.88892C12.4254 2.88892 11.8743 3.11719 11.4679 3.52352C11.0616 3.92985 10.8333 4.48095 10.8333 5.05558V9.21558L7.33057 7.15725C7.08432 6.99122 6.80658 6.87759 6.51458 6.82341C6.22258 6.76923 5.92256 6.77566 5.63314 6.84229C5.34373 6.90893 5.07111 7.03436 4.83221 7.21078C4.5933 7.3872 4.39322 7.61085 4.24438 7.86785C4.09554 8.12485 4.00112 8.4097 3.96699 8.70471C3.93286 8.99973 3.95975 9.29861 4.04598 9.58281C4.13221 9.867 4.27594 10.1304 4.46825 10.3567C4.66056 10.583 4.89735 10.7674 5.1639 10.8984L8.77501 13L5.20001 15.0656C4.86317 15.2506 4.57963 15.5192 4.37668 15.8456C4.12608 16.2583 4.02056 16.743 4.07685 17.2226C4.13315 17.7022 4.34803 18.1492 4.6874 18.4927C5.02677 18.8362 5.47116 19.0565 5.95003 19.1187C6.42889 19.1808 6.91479 19.0811 7.33057 18.8356L10.8333 16.7845V20.8722C10.8163 21.3339 10.9472 21.789 11.2071 22.171C11.4669 22.553 11.8421 22.8419 12.2778 22.9956C12.6053 23.1114 12.9558 23.1467 13.2998 23.0987C13.6437 23.0506 13.9711 22.9206 14.2544 22.7195C14.5376 22.5184 14.7683 22.2522 14.9271 21.9433C15.0858 21.6344 15.168 21.2918 15.1667 20.9445V16.7845L18.6695 18.8428C18.9157 19.0088 19.1934 19.1225 19.4854 19.1766C19.7774 19.2308 20.0775 19.2244 20.3669 19.1578C20.6563 19.0911 20.9289 18.9657 21.1678 18.7893C21.4067 18.6129 21.6068 18.3892 21.7556 18.1322C21.9045 17.8752 21.9989 17.5904 22.033 17.2953C22.0672 17.0003 22.0403 16.7014 21.954 16.4172C21.8678 16.1331 21.7241 15.8696 21.5318 15.6433C21.3395 15.417 21.1027 15.2327 20.8361 15.1017H20.865Z" fill="#FF8A5B"/>
</g>
<defs>
<clipPath id="clip0_1012_102">
<rect width="26" height="26" fill="white"/>
</clipPath>
</defs>
</svg>
