<svg width="23" height="26" viewBox="0 0 23 26" fill="none" xmlns="http://www.w3.org/2000/svg">
<path d="M17.5547 11.5964C15.2153 14.9845 14.5296 20.0668 15.4371 21.8819C16.5464 22.9911 19.8135 22.9709 19.1681 18.05C18.5228 13.1291 21.4538 8.60485 23 6.95783C22.1597 7.09228 19.8942 8.20822 17.5547 11.5964Z" fill="#FF8A5B"/>
<path d="M18.4623 0L12.3112 9.57962C13.2792 10.3057 14.059 13.3779 14.3279 14.8232C14.7649 13.9493 15.5985 11.6771 15.4371 9.57962C15.2758 7.48219 17.3867 2.31928 18.4623 0Z" fill="#FF8A5B"/>
<path d="M11.807 24.8061C10.0322 21.1759 6.22726 18.7222 4.54662 17.9491C4.37856 16.4701 3.98193 13.2299 3.73992 12.1005C3.5024 10.9921 1.30291 8.10949 0.172738 6.73182C-0.0705962 6.60945 -0.0233975 6.61086 0.109742 6.65524C0.130344 6.68021 0.151349 6.70574 0.172738 6.73182C0.482296 6.88748 1.26205 7.24347 2.93321 7.96613C6.66422 9.57954 7.77344 14.924 8.17679 13.5122C8.49948 12.3828 7.57176 6.72246 7.06757 4.03345C7.37009 4.4368 8.64065 6.27205 11.3028 10.3862C14.6304 15.529 14.0254 29.3438 11.807 24.8061Z" fill="#FF8A5B"/>
</svg>
