<svg width="27" height="23" viewBox="0 0 27 23" fill="none" xmlns="http://www.w3.org/2000/svg">
<path d="M8.79858 2.04198L13.2608 6.50417L17.7229 2.04198L16.544 0H9.97752L8.79858 2.04198Z" fill="#FF8A5B"/>
<path d="M12.6243 7.97339L9.51367 19.5825L13.2714 22.8507L17.0301 19.5825L13.9186 7.97339H13.2714H12.6243Z" fill="#FF8A5B"/>
<path d="M11.0015 7.48753L8.47337 4.76488C5.75074 4.2787 0.247124 3.59803 0.0137553 4.76488C-0.219613 5.93173 2.57433 7.39029 4.00047 7.97371L7.40376 8.16819C6.56104 8.84885 5.42013 10.6964 7.59824 12.6411C9.77635 14.5858 10.7746 10.0157 11.0015 7.48753Z" fill="#FF8A5B"/>
<path d="M15.4744 7.54832L18.0026 4.82567C20.7252 4.33949 26.2288 3.65883 26.4622 4.82567C26.6956 5.99252 23.9016 7.45108 22.4755 8.0345L19.0722 8.22898C19.9149 8.90964 21.0558 10.7571 18.8777 12.7019C16.6996 14.6466 15.7013 10.0765 15.4744 7.54832Z" fill="#FF8A5B"/>
</svg>
